<?xml version="1.0" standalone="no"?>
<!DOCTYPE svg PUBLIC "-//W3C//DTD SVG 20010904//EN"
 "http://www.w3.org/TR/2001/REC-SVG-20010904/DTD/svg10.dtd">
<svg version="1.0" xmlns="http://www.w3.org/2000/svg"
 width="800.000000pt" height="800.000000pt" viewBox="0 0 800.000000 800.000000"
 preserveAspectRatio="xMidYMid meet">
<metadata>
Created by potrace 1.14, written by Peter Selinger 2001-2017
</metadata>
<g transform="translate(0.000000,800.000000) scale(0.100000,-0.100000)"
fill="#000000" stroke="none">
<path d="M0 4000 l0 -4000 185 0 185 0 0 68 c0 37 -5 186 -12 332 -20 456 18
831 106 1042 9 20 20 57 26 83 9 41 56 129 100 191 37 50 189 127 272 138 18
2 40 7 49 11 10 3 20 2 23 -3 3 -5 27 -8 53 -6 27 2 56 -2 67 -9 12 -7 34 -11
51 -7 28 5 26 6 -23 18 -153 35 -259 23 -382 -44 l-65 -36 30 33 c17 18 35 38
40 44 137 157 254 266 410 382 28 21 61 47 73 58 64 55 78 65 89 65 6 0 13 3
15 8 2 4 61 49 132 101 133 96 155 114 264 216 35 33 107 89 160 124 54 35 99
67 102 71 7 9 119 80 126 80 9 0 118 73 126 85 12 16 9 25 -6 25 -7 0 -21 -10
-29 -23 -15 -21 -15 -21 -11 -1 4 16 -3 24 -35 39 -23 10 -41 22 -41 27 0 4
-9 8 -20 8 -11 0 -20 7 -20 15 0 9 -8 19 -17 22 -27 11 -54 36 -64 61 -5 12
-15 22 -24 22 -8 0 -15 9 -15 20 0 13 -7 20 -20 20 -12 0 -20 7 -20 16 0 9 -9
18 -20 21 -11 3 -20 14 -20 24 0 12 -7 19 -20 19 -12 0 -20 7 -20 16 0 9 -9
18 -21 21 -13 4 -20 13 -18 27 2 37 -1 45 -20 51 -11 3 -23 15 -26 26 -4 10
-13 19 -21 19 -8 0 -14 6 -14 14 0 8 -9 17 -20 21 -11 4 -23 21 -29 41 -5 19
-22 44 -36 56 -15 11 -31 31 -35 44 -5 13 -17 24 -26 24 -12 0 -15 7 -12 24 3
16 1 23 -7 20 -11 -5 -45 55 -45 81 0 8 -11 24 -24 37 -13 13 -26 35 -30 49
-3 14 -17 42 -31 63 -18 26 -25 49 -23 74 1 21 -3 37 -10 40 -24 8 -43 34 -37
53 6 18 -26 89 -52 117 -7 7 -13 19 -13 27 0 7 -5 15 -11 17 -15 5 0 36 22 43
24 8 25 35 2 35 -22 1 -63 84 -63 128 0 18 -4 32 -10 32 -5 0 -10 18 -10 40 0
22 -4 40 -10 40 -5 0 -10 18 -10 40 0 23 -5 40 -11 40 -8 0 -9 24 -4 80 6 70
5 80 -9 80 -12 0 -16 10 -16 40 0 34 3 40 21 40 14 0 19 5 17 18 -2 9 -11 16
-20 14 -16 -2 -17 16 -11 225 3 125 10 237 15 247 6 10 12 62 14 115 1 56 7
97 13 99 6 2 11 23 11 48 0 25 8 58 20 79 11 19 17 35 15 35 -3 0 2 14 10 30
9 17 13 39 10 49 -6 19 17 51 36 51 5 0 9 7 9 15 0 8 -7 15 -15 15 -19 0 -19
24 0 44 27 26 65 120 65 159 0 26 4 37 15 37 9 0 15 9 15 24 0 30 39 93 63
101 12 5 17 17 17 45 0 42 34 105 61 115 9 3 28 32 42 63 15 32 40 70 57 85
33 30 38 47 15 47 -27 0 -15 17 25 35 22 10 40 24 40 32 0 7 6 13 14 13 8 0
17 8 20 18 3 9 21 25 38 36 19 11 28 21 21 23 -20 7 -15 40 7 46 11 3 20 12
20 21 0 9 8 16 20 16 13 0 20 7 20 20 0 11 7 20 15 20 9 0 18 8 22 18 9 26 35
53 61 63 12 5 22 15 22 24 0 8 9 15 20 15 12 0 20 7 20 18 0 11 16 24 48 37
41 16 44 20 24 25 -22 5 -22 6 -4 21 10 8 26 18 35 22 9 3 17 13 17 22 0 10
10 15 34 15 26 0 36 5 41 20 4 12 21 24 46 30 33 9 39 15 34 30 -5 15 2 21 36
31 26 8 44 20 47 32 3 13 11 18 27 14 15 -2 22 0 19 7 -3 7 15 22 38 34 24 13
59 31 78 41 66 35 110 50 124 45 26 -10 76 24 76 51 0 23 3 25 50 25 28 0 64
7 80 15 18 9 30 11 32 4 2 -5 11 -7 21 -3 11 4 16 13 12 24 -7 23 32 36 133
46 39 4 72 11 72 15 0 5 19 10 43 10 23 1 34 3 24 6 -33 9 -6 23 43 23 28 0
50 5 52 12 3 9 124 12 489 13 415 2 489 0 517 -13 17 -9 32 -19 32 -23 0 -4
36 -10 80 -14 48 -4 84 -12 91 -21 14 -17 41 -18 57 -2 9 9 12 9 12 0 0 -7 15
-12 36 -12 28 0 44 -8 71 -35 30 -30 42 -35 80 -35 34 0 49 -5 62 -21 10 -12
31 -27 47 -33 111 -41 154 -60 154 -67 0 -13 28 -11 32 3 6 16 27 1 38 -28 5
-13 16 -24 23 -24 8 0 22 -9 32 -20 10 -11 22 -20 26 -20 17 0 79 -46 84 -62
7 -20 31 -24 37 -7 6 17 61 -17 79 -48 18 -32 96 -81 174 -109 19 -6 19 -7 -4
-13 -26 -7 -25 -8 23 -48 8 -7 16 -18 18 -25 3 -7 17 -12 36 -10 24 2 32 -2
32 -14 0 -9 9 -18 20 -21 15 -4 20 -14 20 -38 0 -25 5 -35 20 -40 11 -3 20
-10 20 -15 0 -11 59 -70 70 -70 5 0 12 -9 15 -20 3 -11 13 -20 21 -20 8 0 14
-6 14 -14 0 -8 9 -17 20 -21 11 -4 23 -21 29 -41 5 -19 22 -44 36 -56 15 -11
31 -31 35 -44 5 -13 16 -24 25 -24 8 0 15 -9 15 -20 0 -11 4 -20 8 -20 4 0 18
-19 30 -42 41 -77 51 -93 71 -109 10 -9 26 -37 35 -63 9 -26 23 -54 31 -63 8
-8 15 -21 15 -29 0 -8 5 -14 10 -14 6 0 10 -18 10 -40 0 -29 4 -40 15 -40 9 0
15 -9 15 -24 0 -13 7 -29 15 -36 8 -7 12 -16 9 -21 -2 -5 2 -22 11 -38 8 -16
12 -37 9 -45 -5 -14 31 -93 48 -106 13 -10 28 -61 28 -96 0 -19 5 -34 10 -34
6 0 10 -18 10 -40 0 -22 5 -40 10 -40 6 0 10 -11 10 -24 0 -14 5 -28 10 -31
15 -9 12 -25 -5 -25 -11 0 -15 -11 -15 -40 0 -35 3 -40 23 -40 23 0 24 -3 30
-122 12 -206 9 -598 -4 -598 -8 0 -9 -22 -5 -73 7 -74 -1 -115 -29 -143 -9 -9
-15 -34 -15 -62 -1 -26 -7 -58 -15 -72 -8 -14 -14 -46 -15 -71 0 -51 -17 -109
-31 -109 -5 0 -9 -15 -9 -34 0 -25 -5 -35 -20 -39 -17 -4 -20 -14 -20 -55 0
-51 -16 -112 -30 -112 -8 0 -60 -111 -60 -128 0 -6 -6 -17 -13 -24 -7 -7 -23
-35 -37 -63 -14 -27 -33 -58 -42 -69 -10 -11 -18 -28 -18 -37 0 -10 -18 -37
-40 -60 -24 -25 -36 -45 -30 -49 16 -10 -14 -62 -47 -81 -25 -14 -45 -40 -74
-96 -7 -13 -20 -25 -31 -28 -10 -4 -18 -13 -18 -21 0 -8 -6 -14 -14 -14 -8 0
-17 -9 -21 -19 -3 -11 -15 -23 -26 -26 -14 -5 -19 -15 -19 -40 0 -24 -5 -34
-20 -38 -11 -3 -20 -12 -20 -21 0 -12 -10 -16 -34 -16 -28 0 -36 -5 -47 -32
-8 -18 -14 -42 -14 -52 0 -11 -6 -21 -12 -23 -7 -3 -13 2 -13 11 0 23 -27 20
-35 -3 -3 -11 -15 -23 -26 -26 -19 -6 -27 -35 -10 -35 5 0 7 -9 4 -21 -4 -14
-8 -17 -13 -9 -5 9 -15 8 -38 -4 -17 -9 -38 -16 -46 -16 -9 0 -28 -13 -42 -30
-15 -16 -53 -42 -86 -57 -32 -16 -61 -35 -63 -43 -8 -21 -96 -75 -117 -72 -9
2 -19 -2 -23 -8 -3 -6 -11 -7 -17 -4 -7 4 -7 9 1 13 6 4 -4 7 -23 7 l-34 0 42
-26 c26 -17 44 -23 48 -16 4 5 10 -2 13 -16 5 -17 20 -33 43 -44 21 -9 61 -40
90 -68 60 -58 80 -69 63 -37 -7 11 -19 21 -27 21 -9 0 -12 5 -8 12 5 7 2 8 -7
3 -11 -6 -11 -5 -2 5 9 9 41 -3 152 -61 94 -48 137 -76 128 -81 -7 -5 5 -6 29
-3 52 7 111 -14 194 -69 36 -24 81 -51 100 -62 19 -10 64 -39 100 -64 36 -25
89 -61 119 -79 46 -28 156 -124 195 -169 6 -8 33 -35 60 -60 57 -54 106 -127
106 -156 0 -12 16 -48 36 -80 19 -33 53 -93 75 -135 22 -42 45 -80 52 -86 44
-37 115 -189 150 -325 28 -103 66 -212 77 -220 19 -12 111 -266 126 -345 5
-27 3 -35 -8 -35 -12 0 -16 -24 -21 -118 -4 -64 -11 -144 -17 -177 -31 -173
-53 -285 -66 -329 -8 -27 -14 -51 -14 -53 0 -2 13 -3 29 -3 26 0 31 5 45 47
57 178 81 400 61 573 l-5 45 16 -50 c10 -32 17 -107 20 -210 4 -148 7 -168 39
-268 19 -59 35 -114 35 -122 0 -13 57 -15 450 -15 l450 0 0 4000 0 4000 -4000
0 -4000 0 0 -4000z m3920 3820 c0 -6 -47 -10 -120 -10 -73 0 -120 4 -120 10 0
6 47 10 120 10 73 0 120 -4 120 -10z m505 -50 c3 -5 -1 -10 -9 -10 -9 0 -16 5
-16 10 0 6 4 10 9 10 6 0 13 -4 16 -10z m1915 -1761 c0 -5 -4 -9 -10 -9 -5 0
-10 7 -10 16 0 8 5 12 10 9 6 -3 10 -10 10 -16z m-5140 -1545 c0 -8 -4 -12
-10 -9 -5 3 -10 10 -10 16 0 5 5 9 10 9 6 0 10 -7 10 -16z m80 -240 c0 -8 -4
-12 -10 -9 -5 3 -10 10 -10 16 0 5 5 9 10 9 6 0 10 -7 10 -16z m4900 -313 c0
-6 -4 -13 -10 -16 -5 -3 -10 1 -10 9 0 9 5 16 10 16 6 0 10 -4 10 -9z m-600
-801 c0 -5 -2 -10 -4 -10 -3 0 -8 5 -11 10 -3 6 -1 10 4 10 6 0 11 -4 11 -10z
m-3440 -90 c0 -5 -4 -10 -10 -10 -5 0 -10 5 -10 10 0 6 5 10 10 10 6 0 10 -4
10 -10z m3165 -70 c-3 -5 -10 -10 -16 -10 -5 0 -9 5 -9 10 0 6 7 10 16 10 8 0
12 -4 9 -10z m-125 -110 c0 -5 -6 -10 -14 -10 -8 0 -18 5 -21 10 -3 6 3 10 14
10 12 0 21 -4 21 -10z"/>
<path d="M4418 7723 c12 -2 32 -2 45 0 12 2 2 4 -23 4 -25 0 -35 -2 -22 -4z"/>
<path d="M3795 7649 c-4 -6 -14 -8 -22 -5 -8 3 -12 2 -9 -3 5 -7 -26 -17 -71
-23 -7 -1 -11 -4 -8 -6 3 -3 0 -11 -6 -19 -10 -11 -15 -11 -28 -1 -14 12 -14
11 -3 -4 8 -9 11 -21 8 -26 -9 -14 -54 -20 -65 -9 -12 12 -71 16 -71 5 0 -5 4
-8 10 -8 5 0 14 -9 20 -20 14 -27 -9 -61 -58 -86 -20 -10 -48 -29 -61 -41 -13
-13 -27 -20 -32 -17 -5 3 -8 0 -7 -6 2 -7 -8 -14 -21 -16 -14 -3 -38 -11 -54
-19 -16 -8 -45 -17 -66 -21 -20 -4 -71 -24 -113 -45 -43 -22 -78 -37 -78 -35
0 3 -18 -1 -41 -9 -23 -8 -44 -13 -48 -11 -15 10 -108 -18 -139 -41 -51 -38
-72 -80 -72 -141 0 -34 -5 -59 -15 -68 -8 -8 -18 -20 -22 -27 -10 -15 -100
-77 -113 -77 -12 0 -40 -41 -34 -51 2 -4 -7 -29 -22 -55 -17 -31 -22 -49 -15
-53 7 -4 -1 -20 -21 -41 -18 -19 -49 -69 -70 -110 -39 -74 -39 -77 -45 -215
-8 -207 -7 -235 16 -324 12 -44 21 -98 21 -118 0 -21 12 -74 26 -118 19 -58
28 -109 32 -182 2 -57 2 -103 -1 -103 -2 0 -18 7 -33 15 -40 21 -76 19 -124
-6 -33 -17 -48 -35 -74 -88 -50 -98 -79 -213 -66 -259 5 -20 15 -57 21 -81 7
-28 14 -40 18 -32 6 9 10 7 14 -8 3 -12 1 -19 -4 -15 -18 11 -8 -21 37 -115
52 -109 126 -213 182 -260 24 -19 43 -46 50 -69 7 -21 20 -46 30 -55 25 -23
102 -32 143 -18 18 6 34 9 37 6 10 -10 40 -484 47 -736 l8 -266 -40 -54 c-43
-58 -63 -107 -63 -148 1 -37 37 -114 52 -109 23 8 58 -19 133 -99 77 -84 155
-142 323 -242 96 -57 208 -111 232 -111 6 0 16 -5 23 -10 7 -6 46 -32 87 -59
84 -55 119 -89 211 -211 l64 -85 0 -155 0 -154 30 -6 c17 -4 40 -12 52 -18 22
-12 73 -72 73 -87 0 -4 18 -47 40 -96 22 -49 40 -95 40 -102 -1 -16 -34 27
-67 86 -14 26 -28 45 -31 42 -2 -2 4 -19 15 -38 26 -44 35 -93 24 -141 -8 -31
-6 -44 10 -70 24 -39 24 -67 0 -98 -17 -21 -18 -31 -10 -64 22 -91 26 -124 16
-124 -6 0 -7 -48 -3 -137 4 -76 9 -192 11 -258 6 -151 12 -198 37 -310 21 -93
44 -151 34 -85 -10 61 -23 518 -20 703 1 100 -2 177 -7 177 -5 0 -9 14 -9 30
0 30 -14 41 -23 18 -2 -7 -8 -10 -13 -5 -4 4 1 14 12 21 57 41 57 41 65 122
26 253 30 264 109 319 24 17 68 56 99 88 53 54 90 74 77 42 -8 -22 13 -74 35
-86 28 -15 14 -30 -17 -19 -14 6 -40 9 -57 8 -39 -2 -117 -34 -117 -47 0 -16
18 -22 27 -8 9 14 63 40 63 30 0 -11 -45 -98 -57 -111 -7 -7 -13 -19 -12 -25
0 -9 2 -9 5 0 3 7 11 10 17 7 7 -2 22 4 33 15 25 23 79 36 89 21 3 -5 11 -8
16 -5 5 4 9 1 9 -5 0 -6 8 -10 17 -8 10 2 18 -3 18 -11 0 -23 22 -24 28 -1 3
13 11 18 20 14 19 -7 46 45 57 111 5 28 12 61 16 74 l7 25 -39 -24 c-70 -41
-86 -49 -101 -43 -31 12 -46 110 -19 132 11 9 16 5 26 -19 7 -16 16 -30 21
-30 8 0 7 8 -7 45 -13 36 -12 43 6 60 10 9 17 22 14 28 -2 7 14 25 36 40 32
22 40 25 41 13 2 -20 3 -26 17 -56 11 -25 11 -24 11 9 1 26 4 32 17 27 13 -5
15 -1 10 20 -7 27 0 64 13 64 4 0 6 -13 3 -30 -3 -18 0 -30 7 -30 6 0 11 6 11
13 0 9 3 8 9 -2 14 -21 33 -2 27 26 -4 13 -3 29 1 36 10 15 16 127 17 302 0
116 -11 221 -42 395 -9 51 -33 110 -44 110 -11 0 -10 98 2 159 5 28 12 138 15
243 l5 192 39 65 c21 37 64 109 96 161 77 130 147 276 185 390 17 52 36 104
41 115 14 31 49 137 49 149 0 6 -9 -7 -20 -29 l-20 -40 6 43 c4 27 2 42 -5 42
-18 0 -12 18 7 24 14 5 18 17 18 52 1 37 6 50 27 68 21 19 29 39 40 102 15 86
13 102 -10 82 -15 -12 -15 -11 -3 9 8 12 18 19 22 17 4 -3 8 1 8 8 1 7 7 27
14 43 13 27 14 22 9 -60 -4 -83 -3 -88 11 -65 18 33 37 136 36 203 -1 117 10
280 20 292 6 8 18 11 26 8 17 -6 43 23 44 48 0 17 -27 29 -65 29 -11 0 -43 10
-73 22 -37 15 -51 26 -47 36 3 8 1 20 -3 26 -5 6 -6 36 -2 66 l7 55 2 -54 c1
-57 8 -63 17 -15 3 15 7 31 10 36 26 42 18 300 -12 403 -8 28 -17 85 -20 128
-2 42 -8 96 -13 120 -6 23 -11 70 -12 105 -1 36 -11 85 -24 116 -12 29 -22 70
-23 90 -1 21 -11 50 -22 66 -11 15 -20 43 -20 60 0 53 -21 107 -57 149 -38 46
-41 61 -12 87 51 46 61 151 23 239 -10 22 -18 43 -18 47 -1 12 -64 66 -70 60
-3 -3 -6 1 -6 8 0 7 -3 11 -6 8 -3 -4 -22 5 -42 19 -20 13 -49 27 -64 30 -15
3 -25 9 -23 13 3 5 -3 10 -12 13 -15 3 -14 6 7 15 22 10 19 11 -27 11 -31 1
-53 -4 -55 -11 -3 -8 -13 -6 -34 9 -16 11 -51 30 -79 42 -27 12 -57 25 -65 29
-8 5 -35 10 -60 11 -73 5 -85 7 -97 14 -7 4 -25 1 -40 -6 -15 -8 -39 -18 -53
-21 -24 -7 -24 -6 -6 8 20 16 20 16 -1 16 -11 0 -26 -7 -33 -15 -10 -12 -16
-13 -26 -4 -8 6 -12 15 -9 19 9 14 -89 25 -140 16 -25 -5 -35 1 -68 34 -25 27
-46 40 -65 40 -21 0 -24 2 -12 10 9 6 10 10 3 10 -6 0 -15 -5 -18 -11z m22
-35 c-3 -3 -12 -4 -19 -1 -8 3 -5 6 6 6 11 1 17 -2 13 -5z m-70 -56 c-3 -8 -6
-5 -6 6 -1 11 2 17 5 13 3 -3 4 -12 1 -19z m768 -88 c3 -5 1 -10 -4 -10 -6 0
-11 5 -11 10 0 6 2 10 4 10 3 0 8 -4 11 -10z m162 -86 c-3 -3 -12 -4 -19 -1
-8 3 -5 6 6 6 11 1 17 -2 13 -5z m-1870 -265 c-8 -21 -13 -26 -15 -15 -2 10 2
23 8 31 18 22 20 18 7 -16z m1303 -609 c7 0 10 -7 6 -15 -3 -9 0 -15 10 -15 8
0 27 -11 42 -25 15 -14 36 -25 47 -25 11 -1 31 -7 43 -14 22 -12 23 -14 8 -29
-17 -16 -21 -37 -8 -37 4 0 12 10 17 22 13 27 31 34 39 13 3 -9 2 -13 -4 -10
-11 7 -14 0 -25 -49 -5 -25 -4 -28 14 -23 37 9 147 -119 112 -131 -13 -4 5
-41 28 -59 14 -10 14 -13 -2 -30 -9 -11 -17 -27 -17 -36 0 -19 39 -32 68 -22
11 3 23 1 27 -5 3 -6 10 -8 15 -5 11 7 22 -24 13 -38 -4 -7 0 -8 11 -4 10 4
15 3 11 -4 -4 -5 -1 -16 5 -24 10 -12 9 -15 -6 -15 -16 0 -16 -2 4 -16 12 -8
20 -19 17 -24 -9 -14 15 -23 30 -10 16 13 28 -1 19 -24 -3 -9 -17 -16 -30 -16
-13 0 -24 -4 -24 -10 0 -5 -13 -7 -30 -3 -19 3 -30 1 -30 -6 0 -6 -6 -11 -13
-11 -7 0 -21 -14 -32 -32 -15 -27 -19 -29 -25 -14 -5 15 -9 15 -34 -9 -16 -14
-34 -24 -41 -21 -7 2 -16 2 -19 -2 -4 -3 -26 -5 -49 -3 -38 2 -44 -1 -62 -31
-11 -18 -18 -38 -17 -45 5 -22 -17 -23 -32 -1 -14 20 -19 21 -37 10 -29 -19
-52 -8 -88 43 -18 25 -39 45 -47 45 -8 0 -14 7 -14 16 0 8 -4 12 -10 9 -5 -3
-10 1 -10 9 0 9 -8 16 -19 16 -11 0 -26 8 -33 18 -13 18 -115 72 -136 72 -7 0
-12 -4 -12 -10 0 -5 -5 -10 -11 -10 -5 0 -7 5 -4 10 4 6 -5 10 -21 10 -22 0
-26 3 -22 24 5 24 3 24 -58 23 -46 0 -69 4 -82 16 -10 9 -28 17 -40 17 -12 0
-22 6 -22 13 0 8 -3 7 -10 -3 -14 -22 -23 -5 -10 19 13 24 56 30 46 6 -6 -18
5 -20 22 -3 17 17 28 2 12 -17 -8 -10 -9 -15 -1 -15 12 0 24 39 20 61 -4 17
30 71 41 64 8 -5 23 32 21 51 -1 7 9 9 23 7 22 -4 24 -2 20 18 -5 22 -4 23 9
7 8 -10 16 -18 18 -18 4 0 4 28 0 62 -1 4 -8 5 -16 2 -9 -4 -15 0 -15 9 0 9 9
18 19 22 19 6 38 41 28 51 -3 3 -21 6 -40 7 -27 2 -33 5 -25 14 6 7 7 24 4 38
-5 20 -2 27 19 37 13 6 27 20 31 30 4 14 12 18 27 14 12 -3 26 -1 33 5 15 12
44 1 44 -17 0 -8 10 -14 21 -14 17 0 19 3 10 13 -8 11 -7 18 7 29 25 22 63 41
69 34 4 -3 12 -1 20 6 18 15 76 22 68 8 -8 -12 5 -13 24 -1 7 5 10 15 7 22 -4
8 -1 6 7 -3 8 -10 20 -18 27 -18z m-247 -27 c-7 -2 -19 -2 -25 0 -7 3 -2 5 12
5 14 0 19 -2 13 -5z m534 -139 c-3 -3 -12 -4 -19 -1 -8 3 -5 6 6 6 11 1 17 -2
13 -5z m-677 -64 c0 -5 -9 -10 -20 -10 -11 0 -20 -7 -20 -15 0 -8 -4 -15 -10
-15 -11 0 -1 32 14 42 16 11 36 10 36 -2z m-30 -95 c0 -8 -4 -15 -10 -15 -5 0
-7 7 -4 15 4 8 8 15 10 15 2 0 4 -7 4 -15z m940 -269 c0 -11 -19 -15 -25 -6
-3 5 1 10 9 10 9 0 16 -2 16 -4z m-653 -168 c-3 -8 -6 -5 -6 6 -1 11 2 17 5
13 3 -3 4 -12 1 -19z m315 -70 c-15 -15 -26 -4 -18 18 5 13 9 15 18 6 9 -9 9
-15 0 -24z m-542 -9 c116 -18 254 -99 290 -169 37 -72 43 -120 25 -190 -20
-76 -65 -180 -96 -218 -26 -32 -24 -26 15 48 34 64 66 155 66 184 0 17 -2 18
-10 6 -5 -8 -10 -24 -10 -36 0 -11 -11 -44 -25 -72 -14 -29 -25 -54 -25 -57 0
-4 -11 -22 -24 -41 -18 -27 -25 -32 -28 -19 -3 15 -7 13 -31 -9 -15 -14 -32
-26 -36 -26 -13 0 -20 -39 -9 -47 6 -3 8 -2 5 3 -3 6 -1 16 4 24 8 13 10 13
19 0 8 -12 10 -13 10 -1 0 8 3 11 7 8 11 -12 -34 -52 -85 -76 -26 -12 -59 -29
-73 -37 -15 -7 -51 -18 -80 -23 -44 -7 -47 -9 -19 -10 35 -1 140 20 171 33 14
6 15 2 5 -36 -6 -24 -17 -53 -24 -65 -7 -13 -10 -35 -6 -50 9 -41 44 -113 55
-113 5 0 15 -11 21 -25 6 -14 17 -24 24 -21 10 4 12 -3 7 -24 -3 -19 -1 -30 6
-30 6 0 11 -4 11 -10 0 -5 -11 -10 -24 -10 -13 0 -35 -11 -49 -25 -32 -32 -87
-51 -87 -29 0 8 -8 17 -17 21 -10 3 -26 13 -36 22 -17 14 -19 14 -28 -1 -7
-12 -18 -16 -37 -12 -21 3 -33 -2 -52 -23 l-25 -28 -22 23 c-13 13 -23 29 -23
37 0 16 -38 40 -48 30 -4 -3 0 -11 8 -16 11 -8 12 -12 3 -16 -7 -2 -13 -12
-13 -20 0 -9 -6 -13 -15 -10 -8 4 -24 -6 -37 -22 -19 -22 -26 -25 -36 -15 -8
8 -8 15 -2 19 12 7 -42 65 -60 65 -7 0 -10 6 -7 14 6 15 -57 76 -79 76 -18 0
-18 24 1 40 21 17 10 28 -21 22 -21 -4 -25 -1 -24 14 4 31 -12 85 -26 91 -8 3
-14 11 -14 19 0 8 -9 14 -20 14 -22 0 -27 19 -9 37 8 8 5 17 -9 31 -11 11 -23
17 -27 14 -3 -4 -3 9 0 27 4 23 2 37 -7 42 -10 6 -8 12 7 23 11 9 14 16 8 16
-21 0 -14 17 10 24 19 6 20 8 6 18 -14 10 -14 16 -2 50 11 32 11 43 1 55 -10
12 -9 15 7 13 11 -1 22 -1 25 0 12 4 78 5 78 0 -2 -30 32 -38 40 -9 3 11 2 12
-6 1 -7 -11 -10 -11 -15 3 -4 9 -3 13 3 10 6 -3 10 2 11 12 0 10 10 -10 23
-43 26 -71 84 -155 118 -171 13 -6 37 -14 53 -17 29 -6 29 -5 -7 14 -43 23
-90 78 -118 138 -26 54 -23 66 13 47 20 -10 27 -11 27 -1 0 6 -5 17 -10 22 -8
8 -1 11 22 11 27 1 29 -1 13 -7 -15 -6 -7 -9 28 -9 27 -1 57 -6 68 -12 14 -7
24 -7 33 0 8 7 21 6 40 -5 16 -8 34 -13 40 -12 6 1 21 -2 34 -6 16 -5 31 -1
54 15 17 13 26 25 20 27 -7 2 -8 11 -2 28 11 27 10 74 -1 74 -4 0 -9 7 -13 15
-3 8 -2 14 2 13 4 -1 17 3 28 10 12 6 24 9 26 6 3 -3 8 2 11 11 5 12 1 14 -16
11 -12 -3 -38 -7 -59 -11 l-36 -6 19 38 c14 26 18 48 14 71 -3 17 -2 32 2 32
9 0 55 -29 63 -40 18 -24 118 -51 104 -29 -2 4 0 10 5 13 5 4 12 2 15 -3 6
-10 76 19 76 31 0 5 -15 1 -32 -7 l-33 -16 30 25 c30 26 62 35 49 15 -4 -7 2
-9 17 -7 13 2 23 9 21 16 -4 22 36 -6 52 -36 10 -17 15 -21 16 -11 0 21 -61
101 -96 124 -71 46 -291 92 -400 83 -60 -5 -75 9 -16 15 76 8 149 7 212 -4z
m-172 -45 c17 -5 20 -10 11 -20 -6 -7 -17 -10 -26 -7 -12 5 -12 7 -1 14 10 7
9 9 -4 9 -10 0 -18 -5 -18 -11 0 -5 -5 -7 -10 -4 -13 8 -3 25 13 25 7 0 22 -3
35 -6z m1292 -14 c18 -6 5 -8 -45 -9 -39 -1 -75 -5 -80 -10 -6 -5 -30 -12 -55
-15 -25 -2 -64 -14 -87 -25 -23 -12 -46 -21 -51 -21 -20 0 -79 -55 -105 -98
-24 -39 -28 -42 -22 -18 3 16 14 40 24 52 29 37 103 96 141 112 82 34 222 51
280 32z m-1817 -46 c16 -16 -28 -32 -144 -53 -170 -31 -205 -23 -54 13 66 15
134 32 150 36 40 11 41 11 48 4z m1172 -4 c4 -6 -9 -10 -32 -10 -28 0 -34 3
-23 10 20 13 47 13 55 0z m-1035 -10 c0 -5 -4 -10 -10 -10 -5 0 -10 5 -10 10
0 6 5 10 10 10 6 0 10 -4 10 -10z m1023 -47 c-7 -2 -21 -2 -30 0 -10 3 -4 5
12 5 17 0 24 -2 18 -5z m901 -36 c15 -19 26 -36 26 -39 0 -10 -59 -30 -69 -23
-12 7 -15 78 -4 88 12 13 22 7 47 -26z m-1824 -20 c0 -7 -7 -22 -15 -33 -11
-15 -15 -16 -15 -4 -1 10 -4 9 -10 -5 -7 -16 -9 -11 -9 21 -1 22 2 44 5 47 10
9 44 -12 44 -26z m940 22 c0 -5 4 -8 8 -5 5 3 9 -14 11 -38 1 -30 -4 -50 -18
-68 -15 -19 -17 -28 -9 -36 9 -9 9 -15 1 -23 -7 -7 0 -20 23 -45 20 -20 34
-45 34 -59 0 -13 5 -27 10 -30 13 -8 13 -92 0 -97 -6 -2 -13 -15 -15 -30 -4
-21 -2 -26 9 -22 13 5 30 -27 27 -51 0 -6 8 -29 19 -50 11 -22 20 -45 20 -52
0 -8 6 -24 14 -36 15 -22 16 -73 4 -93 -4 -6 -35 -14 -68 -17 -60 -7 -62 -6
-97 28 -40 39 -72 53 -83 36 -4 -7 -24 -14 -45 -17 -20 -2 -45 -8 -54 -13 -26
-14 -81 -1 -81 19 0 37 22 76 52 93 30 17 32 17 53 -3 l22 -20 19 21 c12 13
27 19 41 16 l23 -4 -19 31 c-10 17 -22 52 -25 77 -6 40 -4 49 19 73 28 30 37
78 10 56 -8 -7 -15 -9 -16 -4 -1 5 -2 16 -3 24 -2 8 -4 29 -5 45 -2 19 -5 23
-8 13 -2 -10 -11 -18 -19 -18 -11 0 -13 6 -8 23 12 41 35 78 44 72 13 -8 27
24 28 63 0 18 8 46 16 63 9 17 13 35 10 40 -12 19 8 49 32 49 13 0 24 -5 24
-11z m563 -30 c5 -3 11 -22 14 -40 2 -19 9 -36 14 -37 14 -5 -30 -41 -58 -48
-23 -6 -33 -24 -13 -24 19 0 10 -49 -12 -64 -18 -13 -19 -16 -5 -16 20 0 20
-1 5 -37 -6 -15 -10 -35 -9 -43 1 -8 -12 -21 -28 -28 -28 -13 -30 -16 -29 -73
1 -61 10 -73 28 -39 10 19 12 19 38 3 15 -10 33 -23 40 -30 7 -7 19 -13 25
-13 7 0 6 -4 -2 -12 -11 -10 -14 -10 -18 0 -7 18 -21 15 -28 -8 -12 -37 -101
-15 -163 39 -10 9 -29 25 -42 36 l-25 20 20 -25 c29 -35 44 -47 97 -75 66 -35
148 -52 159 -34 6 10 9 11 9 2 0 -19 30 -16 37 3 5 13 7 13 14 2 7 -11 20 -9
69 8 75 26 89 14 20 -18 -27 -13 -50 -27 -50 -31 0 -5 5 -5 10 -2 6 3 10 1 10
-4 0 -6 -6 -11 -12 -12 -10 0 -10 -2 0 -6 6 -2 9 -9 6 -15 -3 -5 3 -12 14 -15
11 -3 23 -17 27 -31 3 -14 16 -33 27 -40 20 -14 19 -15 -21 -34 -23 -10 -46
-16 -51 -13 -6 3 -10 -1 -10 -9 0 -9 -6 -16 -14 -16 -8 0 -19 -13 -25 -30 -12
-35 -17 -36 -51 -10 -14 11 -31 20 -38 20 -24 0 -72 30 -72 45 0 8 -7 15 -16
15 -10 0 -14 6 -11 14 3 8 -3 22 -14 32 -10 9 -19 22 -19 29 0 6 -13 21 -29
33 -16 11 -39 35 -50 51 l-21 30 37 -5 c39 -5 67 -9 118 -19 25 -4 24 -3 -8
10 -81 31 -167 117 -218 216 -28 56 -59 178 -58 229 l1 45 8 -38 c4 -20 10
-41 14 -45 4 -4 4 6 1 21 -6 22 -2 33 19 53 30 31 96 68 96 55 0 -5 11 -9 25
-10 14 -1 36 -1 49 -2 27 -1 37 -22 25 -55 -6 -19 -4 -20 34 -17 22 2 46 8 54
14 15 13 17 82 3 110 -10 18 -9 18 17 7 15 -6 32 -15 36 -19z m-1173 7 c0 -3
-4 -8 -10 -11 -5 -3 -10 -1 -10 4 0 6 5 11 10 11 6 0 10 -2 10 -4z m-150 -31
c0 -2 3 -10 6 -19 9 -23 -12 -20 -35 6 -24 25 -18 42 10 28 10 -6 19 -12 19
-15z m-44 -41 c-4 -12 -10 -14 -17 -7 -5 5 -7 17 -3 27 4 12 10 14 17 7 5 -5
7 -17 3 -27z m1264 16 c0 -5 -4 -10 -10 -10 -5 0 -10 5 -10 10 0 6 5 10 10 10
6 0 10 -4 10 -10z m461 -17 c11 -138 -39 -307 -115 -384 -48 -49 -68 -59 -100
-51 l-27 7 25 28 c22 24 32 27 57 22 29 -7 30 -6 19 15 -10 19 -10 24 4 32 9
5 16 17 16 28 0 10 7 20 17 22 14 3 16 20 17 135 1 72 3 133 6 135 11 9 56 27
68 27 6 1 13 -7 13 -16z m-2657 -35 c17 -24 21 -64 7 -72 -10 -6 -3 -56 11
-73 6 -8 -4 -25 -31 -54 -23 -23 -41 -47 -41 -55 0 -17 -37 -37 -45 -25 -6 10
21 86 37 108 6 7 7 17 3 23 -3 5 2 10 12 10 17 1 17 1 0 14 -14 11 -16 20 -8
62 17 89 28 101 55 62z m582 -215 c-11 -11 -19 6 -11 24 8 17 8 17 12 0 3 -10
2 -21 -1 -24z m-672 -109 c3 -8 2 -12 -4 -9 -6 3 -10 10 -10 16 0 14 7 11 14
-7z m1596 6 c0 -5 -5 -10 -11 -10 -5 0 -7 5 -4 10 3 6 8 10 11 10 2 0 4 -4 4
-10z m865 -19 c10 -17 -12 -21 -25 -6 -10 12 -10 15 3 15 9 0 18 -4 22 -9z
m-2462 -140 c-8 -10 -15 11 -17 51 -4 65 8 71 15 8 3 -30 4 -57 2 -59z m215
55 c11 -25 7 -36 -14 -36 -15 0 -28 35 -19 50 10 16 21 12 33 -14z m-158 -102
c0 -8 -4 -12 -10 -9 -5 3 -10 10 -10 16 0 5 5 9 10 9 6 0 10 -7 10 -16z m120
-61 c22 8 32 8 44 -2 38 -31 -3 -62 -56 -42 -32 12 -42 27 -32 49 6 16 7 16
11 1 3 -14 9 -15 33 -6z m1409 -139 c39 6 58 -4 46 -24 -4 -7 -12 -7 -25 0
-10 6 -21 7 -23 3 -6 -10 19 -34 26 -27 3 3 15 1 26 -6 17 -8 21 -8 21 4 0 7
7 16 15 20 8 3 15 1 15 -4 0 -6 7 -10 15 -10 8 0 15 5 15 11 0 5 5 7 10 4 6
-4 7 -11 4 -17 -4 -6 5 -8 22 -6 25 3 29 0 26 -21 -3 -31 -46 -71 -64 -60 -7
5 -17 9 -23 9 -5 0 -3 -5 5 -10 12 -7 10 -9 -8 -7 -13 1 -21 6 -18 13 7 18
-55 38 -66 22 -5 -9 -10 -2 -14 19 -7 34 -32 52 -45 31 -6 -9 -10 -8 -15 6 -4
11 -1 22 7 28 10 7 8 8 -8 5 -14 -3 -23 0 -23 7 0 20 12 27 27 15 8 -7 29 -9
52 -5z m349 -114 c7 0 12 -7 12 -16 0 -10 -6 -14 -14 -11 -8 3 -16 1 -19 -6
-6 -18 -81 4 -85 26 -3 12 3 17 22 17 14 0 28 5 31 11 5 7 13 5 24 -5 10 -9
23 -16 29 -16z m-515 -38 c-3 -14 6 -20 42 -30 55 -14 52 -27 -7 -35 -24 -2
-50 -8 -59 -11 -25 -11 -31 20 -11 59 18 36 44 48 35 17z m-103 -12 c0 -5 -4
-10 -10 -10 -5 0 -10 5 -10 10 0 6 5 10 10 10 6 0 10 -4 10 -10z m32 -25 c0
-5 -5 -11 -11 -13 -6 -2 -11 4 -11 13 0 9 5 15 11 13 6 -2 11 -8 11 -13z m513
-46 c16 -16 -29 -9 -50 7 -19 15 -19 15 10 8 17 -3 34 -11 40 -15z m-395 -91
c0 -5 7 -2 16 6 10 10 33 16 64 16 54 0 67 -14 48 -55 -9 -20 -18 -25 -50 -25
-26 0 -44 6 -55 20 -16 19 -17 19 -28 -3 -6 -12 -18 -23 -27 -25 -22 -4 -60
34 -56 56 5 27 88 37 88 10z m263 7 c9 -4 17 -11 17 -15 0 -5 13 -2 28 6 22
10 41 12 76 5 29 -5 49 -5 52 1 4 6 23 7 43 4 64 -10 111 -11 115 -3 3 4 3 2
2 -5 -2 -7 -9 -12 -15 -10 -6 1 -11 -4 -11 -11 0 -38 -42 -59 -117 -59 -32 1
-38 -6 -33 -37 1 -10 -7 -12 -34 -8 -20 3 -38 1 -41 -4 -10 -16 -65 -10 -72 7
-6 16 -7 15 -19 0 -13 -19 -64 -13 -64 8 0 7 -3 6 -9 -2 -9 -15 -61 -6 -61 10
0 5 10 6 22 3 18 -6 20 -4 13 11 -15 36 -16 59 -6 87 10 25 14 27 53 23 24 -2
51 -7 61 -11z m-223 -85 c0 -5 -2 -10 -4 -10 -3 0 -8 5 -11 10 -3 6 -1 10 4
10 6 0 11 -4 11 -10z m-278 -50 c12 -11 28 -20 35 -20 12 0 17 -13 14 -33 -1
-5 8 -21 19 -37 18 -25 18 -28 3 -34 -12 -5 -13 -10 -6 -17 8 -8 7 -16 -4 -29
-13 -15 -20 -16 -40 -7 -22 10 -24 16 -21 51 3 23 6 48 9 56 3 11 -4 14 -26
13 -24 -2 -31 2 -31 16 0 12 5 17 15 13 11 -4 13 1 7 21 -8 32 -2 34 26 7z
m491 -142 c-6 -36 -10 -44 -18 -36 -8 8 6 68 16 68 5 0 6 -15 2 -32z m39 7 c3
-13 1 -22 -3 -19 -5 3 -9 -3 -9 -12 0 -10 -2 -15 -5 -12 -5 5 5 68 10 68 2 0
5 -11 7 -25z m113 -6 c-4 -11 -2 -19 4 -19 6 0 11 -5 11 -11 0 -27 -25 1 -27
29 -1 18 3 30 8 26 6 -3 7 -14 4 -25z m-221 6 c3 -9 0 -15 -9 -15 -9 0 -12 6
-9 15 4 8 7 15 9 15 2 0 5 -7 9 -15z m192 -31 c-6 -16 -8 -16 -16 -4 -6 8 -10
24 -10 35 0 18 1 18 16 3 10 -10 14 -23 10 -34z m-506 -19 c0 -8 -4 -15 -10
-15 -5 0 -10 7 -10 15 0 8 5 15 10 15 6 0 10 -7 10 -15z m128 -152 c-5 -22
-21 -20 -23 4 -1 14 3 19 12 16 8 -3 13 -12 11 -20z m-37 -6 c8 -18 18 -23 43
-23 22 1 32 5 29 14 -3 6 -1 12 5 12 6 0 12 -5 14 -10 3 -9 57 -19 173 -33 11
-1 25 -5 32 -10 6 -4 19 -4 27 -1 10 4 25 -1 36 -11 12 -11 29 -16 45 -12 20
3 33 -2 51 -22 13 -14 24 -29 24 -34 0 -4 9 -3 20 3 16 9 20 8 20 -5 0 -8 -7
-15 -15 -15 -8 0 -12 -6 -10 -12 4 -12 -65 -63 -85 -63 -5 0 -12 -3 -16 -7
-13 -13 -26 -9 -21 6 4 10 1 13 -9 9 -7 -3 -14 -11 -14 -19 0 -8 -4 -15 -10
-15 -5 -1 -13 -2 -17 -3 -60 -15 -74 -16 -84 -10 -8 5 -7 9 2 15 11 7 11 9 -1
9 -9 0 -21 -5 -27 -11 -13 -13 -86 -14 -105 -2 -7 4 -19 8 -26 9 -30 5 -42 14
-42 32 0 15 -6 18 -31 14 -30 -4 -32 -3 -27 22 4 20 2 26 -8 22 -18 -7 -38 21
-39 52 0 16 -6 27 -14 27 -14 0 -29 27 -30 54 -1 14 24 12 63 -4 17 -7 18 -5
12 18 -8 35 20 38 35 4z m-454 -663 c-9 -9 -28 6 -21 18 4 6 10 6 17 -1 6 -6
8 -13 4 -17z m260 -120 c-7 -7 -37 7 -37 17 0 6 9 5 21 -1 11 -7 19 -14 16
-16z m-330 -89 c38 -16 69 -13 58 5 -3 5 1 10 9 10 9 0 16 -4 16 -10 0 -5 6
-10 14 -10 8 0 16 -6 19 -14 4 -9 14 -12 26 -9 16 4 23 -1 31 -21 9 -24 23
-30 67 -29 7 1 15 -15 19 -34 4 -23 11 -33 20 -29 8 3 14 3 14 0 0 -2 -12 -9
-27 -16 -34 -13 -143 -17 -136 -4 4 5 -3 7 -15 4 -14 -4 -20 -2 -15 5 4 6 0 8
-10 4 -9 -3 -23 0 -31 8 -8 8 -22 15 -31 15 -9 0 -13 5 -10 10 3 6 -1 10 -9
10 -9 0 -16 5 -16 10 0 6 8 10 18 10 10 0 27 7 38 15 17 13 16 13 -13 3 -39
-15 -65 0 -45 25 9 11 7 16 -13 25 -14 6 -25 16 -25 22 0 13 4 13 47 -5z
m-112 -5 c3 -6 -1 -7 -9 -4 -18 7 -21 14 -7 14 6 0 13 -4 16 -10z m532 -16
c-3 -3 -12 -4 -19 -1 -8 3 -5 6 6 6 11 1 17 -2 13 -5z m-479 -24 c7 -11 19
-20 26 -20 8 0 17 -4 20 -9 3 -5 -5 -8 -19 -8 -14 0 -22 3 -19 8 3 5 0 9 -6 9
-6 0 -18 7 -27 15 -8 8 -19 12 -25 9 -7 -4 -8 -2 -4 4 11 19 40 14 54 -8z
m382 -80 c0 -5 -4 -10 -10 -10 -5 0 -10 5 -10 10 0 6 5 10 10 10 6 0 10 -4 10
-10z m300 -121 c0 -6 -4 -7 -10 -4 -5 3 -10 11 -10 16 0 6 5 7 10 4 6 -3 10
-11 10 -16z m669 -344 c0 -15 -3 -12 -13 10 -7 17 -11 34 -8 39 7 12 20 -21
21 -49z m49 -50 c-3 -3 -9 2 -12 12 -6 14 -5 15 5 6 7 -7 10 -15 7 -18z m-515
-46 c-12 -12 -6 -49 8 -49 13 0 11 -48 -2 -56 -6 -3 -15 -1 -19 6 -5 8 -13 9
-26 2 -11 -5 -25 -7 -31 -5 -7 3 -13 -2 -13 -11 0 -9 -7 -16 -15 -16 -8 0 -22
-11 -31 -24 -20 -31 -48 -24 -40 10 5 18 2 24 -9 24 -48 0 -51 77 -5 110 18
13 31 16 35 10 3 -5 14 -10 25 -10 13 0 17 -5 13 -20 -8 -30 14 -24 33 10 13
20 27 30 48 32 37 4 43 1 29 -13z m-27 -126 c-10 -10 -19 5 -10 18 6 11 8 11
12 0 2 -7 1 -15 -2 -18z"/>
<path d="M3800 6410 c0 -5 5 -10 11 -10 5 0 7 5 4 10 -3 6 -8 10 -11 10 -2 0
-4 -4 -4 -10z"/>
<path d="M3755 6010 c-3 -5 -1 -10 4 -10 6 0 11 5 11 10 0 6 -2 10 -4 10 -3 0
-8 -4 -11 -10z"/>
<path d="M3906 5318 c7 -11 32 -10 39 2 3 6 -4 9 -19 8 -13 -1 -22 -6 -20 -10z"/>
<path d="M3970 5310 c-14 -11 -19 -20 -12 -20 14 0 47 28 41 35 -3 2 -15 -5
-29 -15z"/>
<path d="M3921 5271 c-25 -16 -5 -58 29 -63 37 -6 39 10 8 46 -16 18 -27 23
-37 17z"/>
<path d="M3695 5143 c-11 -3 -24 -9 -30 -15 -13 -12 46 1 60 13 10 10 4 10
-30 2z"/>
<path d="M3532 5109 c2 -6 8 -10 13 -10 5 0 11 4 13 10 2 6 -4 11 -13 11 -9 0
-15 -5 -13 -11z"/>
<path d="M3620 5110 c0 -5 4 -10 9 -10 6 0 13 5 16 10 3 6 -1 10 -9 10 -9 0
-16 -4 -16 -10z"/>
<path d="M4570 5384 c-9 -9 -9 -14 -2 -14 6 0 9 -7 6 -15 -8 -20 6 -19 22 3
17 22 17 29 0 35 -8 3 -20 -1 -26 -9z"/>
<path d="M4500 5339 c0 -5 5 -7 10 -4 6 3 10 8 10 11 0 2 -4 4 -10 4 -5 0 -10
-5 -10 -11z"/>
<path d="M4455 5200 c-8 -13 5 -13 25 0 13 8 13 10 -2 10 -9 0 -20 -4 -23 -10z"/>
<path d="M4938 4713 c7 -3 16 -2 19 1 4 3 -2 6 -13 5 -11 0 -14 -3 -6 -6z"/>
<path d="M3768 3763 c7 -3 16 -2 19 1 4 3 -2 6 -13 5 -11 0 -14 -3 -6 -6z"/>
<path d="M3530 2840 c0 -5 5 -10 10 -10 6 0 10 5 10 10 0 6 -4 10 -10 10 -5 0
-10 -4 -10 -10z"/>
<path d="M4080 2230 c0 -11 4 -20 9 -20 5 0 7 9 4 20 -3 11 -7 20 -9 20 -2 0
-4 -9 -4 -20z"/>
<path d="M4785 7431 c-3 -5 -2 -12 3 -15 5 -3 9 1 9 9 0 17 -3 19 -12 6z"/>
<path d="M4740 7420 c-9 -6 -10 -10 -3 -10 6 0 15 5 18 10 8 12 4 12 -15 0z"/>
<path d="M5051 4734 c0 -11 3 -14 6 -6 3 7 2 16 -1 19 -3 4 -6 -2 -5 -13z"/>
<path d="M2530 3216 c-28 -26 -111 -66 -123 -60 -7 4 -9 4 -5 0 4 -5 -19 -29
-50 -55 -69 -57 -148 -144 -169 -184 -14 -29 -21 -93 -10 -104 10 -10 29 9 64
66 46 72 63 91 152 176 60 57 69 63 47 31 -26 -39 -42 -95 -33 -118 3 -8 9 0
16 17 27 70 30 72 30 15 0 -30 -4 -75 -10 -100 -6 -25 -12 -74 -13 -108 -3
-62 -13 -81 -43 -82 -7 0 -13 -4 -13 -10 0 -14 28 -12 33 3 14 40 21 -21 32
-290 3 -72 12 -178 20 -235 8 -57 18 -220 22 -363 4 -184 9 -253 16 -237 6 12
18 22 28 22 16 0 17 -4 8 -27 -8 -21 -6 -38 7 -72 15 -40 19 -55 23 -100 0 -8
4 -11 8 -7 10 10 10 216 1 216 -4 0 -7 17 -7 38 3 77 -14 297 -23 309 -5 6 -9
31 -8 55 1 47 0 59 -20 223 -9 74 -19 114 -29 121 -11 9 -12 16 -5 25 6 8 12
32 13 53 3 37 28 92 38 82 3 -2 16 -46 29 -96 14 -51 31 -104 38 -118 11 -22
12 -11 8 79 -4 99 -19 172 -99 467 -18 66 -9 104 12 55 8 -18 19 -33 24 -33 6
0 2 15 -8 33 -11 17 -22 48 -26 67 -4 19 -12 41 -17 48 -14 17 -4 120 13 135
40 34 72 77 58 77 -8 0 -21 -6 -29 -14z m-29 -636 c19 0 9 -48 -11 -53 -17 -4
-19 -1 -16 26 7 60 8 63 13 45 2 -10 9 -18 14 -18z m9 -950 c0 -5 -2 -10 -4
-10 -3 0 -8 5 -11 10 -3 6 -1 10 4 10 6 0 11 -4 11 -10z"/>
<path d="M2607 3123 c8 -52 23 -66 23 -21 0 19 -7 41 -15 48 -12 10 -13 6 -8
-27z"/>
<path d="M2220 3076 c0 -2 7 -6 15 -10 8 -3 15 -1 15 4 0 6 -7 10 -15 10 -8 0
-15 -2 -15 -4z"/>
<path d="M4696 2931 c-4 -7 -5 -15 -2 -18 9 -9 19 4 14 18 -4 11 -6 11 -12 0z"/>
<path d="M4688 2894 c-8 -7 22 -65 31 -60 4 3 7 -4 7 -14 0 -10 -4 -16 -9 -13
-5 3 -8 0 -6 -6 7 -21 24 -17 27 7 2 12 8 22 13 22 5 0 8 -3 8 -7 -3 -20 2
-27 11 -13 8 13 15 13 61 -3 50 -18 85 -16 38 2 -107 41 -137 55 -155 72 -11
10 -23 17 -26 13z"/>
<path d="M2530 2842 c0 -5 7 -17 15 -28 15 -19 20 -8 9 20 -6 17 -24 22 -24 8z"/>
<path d="M4740 2760 c0 -5 5 -10 11 -10 5 0 7 5 4 10 -3 6 -8 10 -11 10 -2 0
-4 -4 -4 -10z"/>
<path d="M4930 2761 c0 -5 7 -12 16 -15 24 -9 28 -7 14 9 -14 17 -30 20 -30 6z"/>
<path d="M4990 2730 c0 -6 7 -10 15 -10 8 0 15 2 15 4 0 2 -7 6 -15 10 -8 3
-15 1 -15 -4z"/>
<path d="M5088 2703 c6 -2 18 -2 25 0 6 3 1 5 -13 5 -14 0 -19 -2 -12 -5z"/>
<path d="M5130 2700 c0 -10 2 -11 59 -16 43 -3 27 12 -21 20 -24 4 -38 3 -38
-4z"/>
<path d="M5230 2682 c0 -8 61 -34 67 -28 4 3 -54 36 -64 36 -1 0 -3 -4 -3 -8z"/>
<path d="M2336 2658 c-8 -13 -22 -41 -32 -63 -9 -22 -29 -58 -45 -82 -37 -53
-37 -66 -1 -25 28 31 46 63 72 127 7 17 16 38 21 48 13 25 2 21 -15 -5z"/>
<path d="M2640 2617 c0 -15 24 -89 40 -122 5 -11 22 -58 39 -105 16 -47 36
-101 45 -120 l16 -35 -6 45 c-4 25 -10 50 -14 55 -3 6 -12 30 -19 55 -7 25
-28 87 -48 138 -33 87 -53 120 -53 89z"/>
<path d="M4960 2580 c0 -5 5 -10 10 -10 6 0 10 5 10 10 0 6 -4 10 -10 10 -5 0
-10 -4 -10 -10z"/>
<path d="M4717 2468 c-10 -117 -9 -195 2 -216 5 -9 12 -26 16 -37 6 -19 7 -19
19 3 7 12 14 20 17 17 10 -9 -10 112 -26 157 -20 59 -18 84 3 29 18 -45 35
-55 40 -24 4 24 -40 145 -54 150 -7 2 -13 -27 -17 -79z"/>
<path d="M2830 2507 c0 -30 66 -168 141 -292 16 -27 36 -66 44 -85 34 -79 74
-154 75 -139 0 8 -25 66 -55 127 -30 62 -55 116 -55 122 0 5 -3 10 -7 10 -5 0
-17 19 -28 43 -35 77 -106 221 -111 226 -2 2 -4 -3 -4 -12z"/>
<path d="M2256 2424 c-9 -24 -7 -54 4 -54 6 0 10 9 10 19 0 11 3 26 6 35 3 9
2 16 -4 16 -5 0 -13 -7 -16 -16z"/>
<path d="M3060 2396 c0 -2 21 -16 47 -31 51 -30 153 -125 153 -142 0 -6 10
-17 23 -26 37 -25 80 -68 343 -352 61 -66 140 -152 175 -192 34 -40 65 -71 67
-69 2 2 -4 18 -12 34 -16 31 -82 103 -293 318 -65 66 -165 178 -223 248 -93
113 -113 132 -175 164 -78 41 -105 53 -105 48z"/>
<path d="M3430 2236 c0 -2 8 -10 18 -17 15 -13 16 -12 3 4 -13 16 -21 21 -21
13z"/>
<path d="M3490 2217 c0 -10 49 -100 49 -91 1 17 -27 82 -39 89 -5 3 -10 5 -10
2z"/>
<path d="M3610 2176 c0 -14 51 -86 67 -94 10 -5 34 -13 53 -17 l35 -7 -25 18
c-14 10 -29 22 -35 26 -5 4 -29 23 -52 44 -24 20 -43 33 -43 30z"/>
<path d="M3750 2140 c0 -5 5 -10 10 -10 6 0 10 5 10 10 0 6 -4 10 -10 10 -5 0
-10 -4 -10 -10z"/>
<path d="M4620 2105 c-7 -9 -8 -15 -2 -15 5 0 12 7 16 15 3 8 4 15 2 15 -2 0
-9 -7 -16 -15z"/>
<path d="M3814 2041 c4 -6 16 -11 27 -11 11 0 18 -4 15 -9 -8 -12 25 -24 36
-13 12 12 -10 28 -51 37 -23 5 -31 4 -27 -4z"/>
<path d="M2175 2009 c-3 -19 -6 -50 -7 -69 -1 -90 12 -365 22 -450 20 -169 12
-592 -10 -535 -15 37 -10 -139 5 -185 7 -25 21 -108 29 -184 16 -136 20 -155
32 -144 5 6 6 79 8 643 1 328 -4 553 -14 640 -29 230 -39 298 -48 307 -7 7
-13 0 -17 -23z"/>
<path d="M1508 2013 c7 -3 16 -2 19 1 4 3 -2 6 -13 5 -11 0 -14 -3 -6 -6z"/>
<path d="M6421 1892 c-1 -44 -41 -162 -92 -270 -22 -48 -51 -109 -64 -137 -21
-46 -55 -176 -55 -207 0 -7 18 28 39 77 21 50 65 146 98 215 33 69 67 150 76
180 21 77 32 164 19 156 -6 -3 -13 0 -15 6 -3 7 -6 -2 -6 -20z"/>
<path d="M1205 1810 c3 -5 11 -10 16 -10 6 0 7 5 4 10 -3 6 -11 10 -16 10 -6
0 -7 -4 -4 -10z"/>
<path d="M4190 1780 c-7 -13 -7 -20 -1 -20 6 0 15 9 21 20 7 13 7 20 1 20 -6
0 -15 -9 -21 -20z"/>
<path d="M4229 1688 c0 -7 -1 -71 0 -143 0 -111 -2 -134 -19 -163 -11 -18 -16
-31 -12 -28 14 9 33 -61 32 -116 -1 -29 3 -105 9 -168 6 -63 15 -167 20 -230
5 -63 14 -151 20 -195 6 -44 13 -154 16 -245 2 -91 9 -192 15 -225 5 -33 10
-75 10 -92 0 -20 8 -41 20 -53 l20 -20 0 33 c0 17 -7 72 -15 121 -8 49 -19
189 -25 310 -6 122 -13 228 -15 236 -3 8 -7 60 -10 115 -3 55 -10 120 -15 145
-6 25 -12 115 -14 200 -3 85 -8 172 -11 193 -4 21 -2 58 5 85 16 64 22 143 10
157 -5 6 -11 28 -13 50 -4 36 -26 63 -28 33z"/>
<path d="M1740 1668 c0 -23 37 -124 65 -173 12 -22 42 -97 65 -166 40 -117 73
-180 86 -166 3 3 -4 27 -16 54 -12 26 -37 91 -56 143 -70 193 -107 281 -125
303 -15 19 -18 19 -19 5z"/>
<path d="M2413 1647 c-5 -6 -10 -48 -11 -92 -2 -58 -6 -83 -17 -91 -8 -6 -17
-24 -19 -40 -2 -16 -1 -23 1 -16 8 22 26 13 18 -10 -20 -64 -25 -150 -29 -438
-4 -279 -19 -490 -42 -585 -2 -11 -11 -76 -19 -145 -12 -109 -12 -126 0 -140
8 -9 15 -33 15 -53 0 -37 0 -37 41 -37 38 0 41 2 34 22 -4 13 -11 48 -16 78
-5 30 -13 80 -19 110 -9 52 0 195 13 217 12 18 27 140 37 298 6 88 15 228 21
310 14 224 21 612 11 619 -6 3 -14 0 -19 -7z"/>
<path d="M2377 1611 c-4 -19 -5 -36 -2 -39 10 -11 16 7 13 40 l-3 33 -8 -34z"/>
<path d="M4311 1563 c1 -32 4 -47 6 -33 2 14 11 30 20 37 13 10 12 14 -6 32
l-21 21 1 -57z"/>
<path d="M2091 1584 c0 -11 3 -14 6 -6 3 7 2 16 -1 19 -3 4 -6 -2 -5 -13z"/>
<path d="M4150 1576 c0 -9 0 -19 -1 -23 0 -4 4 -9 10 -11 14 -5 14 35 1 43 -5
3 -10 -1 -10 -9z"/>
<path d="M4095 1540 c-3 -5 -2 -10 4 -10 5 0 13 5 16 10 3 6 2 10 -4 10 -5 0
-13 -4 -16 -10z"/>
<path d="M2376 1523 c-6 -14 -5 -15 5 -6 7 7 10 15 7 18 -3 3 -9 -2 -12 -12z"/>
<path d="M2480 1515 c0 -8 2 -15 4 -15 2 0 6 7 10 15 3 8 1 15 -4 15 -6 0 -10
-7 -10 -15z"/>
<path d="M4130 1461 c0 -10 24 -21 43 -21 7 0 3 7 -7 15 -22 17 -36 19 -36 6z"/>
<path d="M4276 1404 c-10 -25 1 -29 14 -5 6 12 7 21 1 21 -5 0 -12 -7 -15 -16z"/>
<path d="M4152 1315 c0 -16 2 -22 5 -12 2 9 2 23 0 30 -3 6 -5 -1 -5 -18z"/>
<path d="M6052 1210 c0 -14 2 -19 5 -12 2 6 2 18 0 25 -3 6 -5 1 -5 -13z"/>
<path d="M6205 1193 c-34 -38 -43 -57 -44 -93 -1 -23 1 -22 25 13 26 38 58
107 52 112 -2 1 -16 -13 -33 -32z"/>
<path d="M2085 1002 c4 -58 21 -126 40 -161 17 -32 18 -28 5 62 -18 127 -20
135 -35 140 -11 5 -13 -4 -10 -41z"/>
<path d="M6070 982 c0 -29 4 -52 9 -52 8 0 3 90 -5 99 -2 2 -4 -19 -4 -47z"/>
<path d="M6138 972 c-25 -16 -56 -67 -46 -77 5 -6 88 75 88 86 0 12 -10 10
-42 -9z"/>
<path d="M2000 948 c0 -4 18 -45 40 -92 45 -96 50 -118 19 -90 -20 18 -20 18
-13 -11 4 -17 15 -46 24 -65 9 -19 20 -63 23 -98 4 -35 13 -69 20 -77 7 -7 19
-46 26 -86 7 -41 17 -90 22 -109 5 -19 9 -48 9 -65 l0 -30 -15 29 c-8 15 -15
35 -15 42 0 8 -7 14 -16 14 -12 0 -15 -6 -11 -22 14 -56 19 -149 9 -160 -7 -9
-6 -27 5 -58 21 -62 30 -70 74 -70 l38 0 6 57 c4 32 15 108 25 168 10 61 17
112 15 113 -6 7 -23 -69 -40 -182 -22 -146 -31 -163 -31 -64 0 46 -9 133 -21
193 -26 132 -44 284 -51 420 -3 57 -8 89 -11 75 -6 -22 -10 -17 -39 40 -30 59
-91 145 -92 128z"/>
<path d="M5966 810 c-8 -129 -17 -595 -12 -589 10 9 40 198 43 269 8 163 6
291 -6 303 -14 14 -15 51 -1 42 15 -9 12 28 -4 50 -12 17 -14 9 -20 -75z"/>
<path d="M1410 841 c0 -5 9 -20 20 -33 56 -65 224 -300 271 -379 138 -232 224
-392 221 -408 -2 -7 1 -10 7 -6 6 3 11 1 11 -4 0 -6 7 -11 16 -11 16 0 -32 97
-122 247 -24 40 -44 75 -44 77 0 2 -30 53 -66 113 -132 216 -314 450 -314 404z"/>
<path d="M6652 730 c-35 -48 -123 -148 -195 -222 -127 -130 -199 -188 -232
-188 -9 0 -14 -4 -11 -8 6 -10 -109 -54 -131 -50 -9 2 -18 9 -21 17 -3 8 0 11
6 7 6 -3 12 -3 14 2 1 4 20 21 40 36 42 31 42 48 0 40 -24 -5 -29 -1 -45 34
-9 21 -17 45 -17 53 0 17 -27 -31 -47 -86 -17 -45 -72 -307 -73 -342 0 -20 5
-23 38 -23 36 0 40 3 65 51 25 50 88 112 250 253 87 75 353 357 381 405 20 33
48 103 43 107 -1 1 -31 -37 -65 -86z"/>
<path d="M6080 768 c0 -25 3 -29 10 -18 13 20 13 50 0 50 -5 0 -10 -15 -10
-32z"/>
<path d="M6965 700 c3 -5 8 -10 11 -10 2 0 4 5 4 10 0 6 -5 10 -11 10 -5 0 -7
-4 -4 -10z"/>
<path d="M2288 548 c-6 -166 1 -202 18 -103 18 101 18 245 0 245 -10 0 -14
-31 -18 -142z"/>
<path d="M6066 532 c-4 -24 -6 -46 -2 -49 8 -8 18 42 14 68 -3 18 -6 13 -12
-19z"/>
<path d="M4082 430 c0 -19 2 -27 5 -17 2 9 2 25 0 35 -3 9 -5 1 -5 -18z"/>
<path d="M4086 260 c6 -196 13 -260 29 -260 16 0 12 76 -10 215 -8 50 -17 110
-19 135 -2 25 -2 -16 0 -90z"/>
<path d="M670 366 c0 -8 5 -18 10 -21 6 -3 10 1 10 9 0 8 -4 18 -10 21 -5 3
-10 -1 -10 -9z"/>
<path d="M2584 253 c0 -38 -5 -67 -16 -83 -9 -14 -21 -43 -27 -65 -5 -22 -14
-55 -19 -72 l-11 -33 39 0 c43 0 40 -5 60 122 6 37 14 78 19 92 7 17 5 33 -7
57 -27 52 -39 47 -38 -18z"/>
<path d="M720 264 c0 -11 9 -30 20 -42 11 -12 20 -25 20 -30 0 -10 63 -95 91
-123 10 -10 25 -29 34 -43 10 -14 27 -26 38 -26 19 0 18 3 -10 33 -29 30 -130
161 -164 213 -24 36 -29 39 -29 18z"/>
<path d="M870 170 c0 -5 5 -10 11 -10 5 0 7 5 4 10 -3 6 -8 10 -11 10 -2 0 -4
-4 -4 -10z"/>
<path d="M900 135 c0 -5 9 -23 20 -40 11 -16 20 -25 20 -20 0 6 -9 24 -20 40
-11 17 -20 26 -20 20z"/>
<path d="M970 40 c0 -5 5 -10 11 -10 5 0 7 5 4 10 -3 6 -8 10 -11 10 -2 0 -4
-4 -4 -10z"/>
</g>
</svg>
